<?xml version="1.0" standalone="no"?>
<svg
  viewBox="0 0 600 600"
  xmlns="http://www.w3.org/2000/svg"
>
  <g transform="translate(300,300)">
    <path d="M103.9,-142.5C130.2,-123.9,144,-87.6,167.1,-47.1C190.2,-6.6,222.5,38.1,207.4,62C192.3,86,129.6,89.1,87.2,91.5C44.7,93.8,22.3,95.4,-12.7,112.9C-47.8,130.5,-95.6,163.9,-135.4,160.7C-175.2,157.5,-206.9,117.5,-228.2,69.9C-249.5,22.4,-260.3,-32.9,-247.6,-83.1C-235,-133.4,-198.9,-178.8,-153.7,-191.2C-108.5,-203.7,-54.3,-183.4,-7.7,-172.7C38.8,-162.1,77.6,-161.1,103.9,-142.5Z" fill="#5cc8ff" />
  </g>
</svg>
